<?xml version="1.0" standalone="no"?><!DOCTYPE svg PUBLIC "-//W3C//DTD SVG 1.1//EN" "http://www.w3.org/Graphics/SVG/1.1/DTD/svg11.dtd"><svg t="1571198349572" class="icon" viewBox="0 0 1055 1024" version="1.1" xmlns="http://www.w3.org/2000/svg" p-id="16302" xmlns:xlink="http://www.w3.org/1999/xlink" width="206.0546875" height="200"><defs><style type="text/css"></style></defs><path d="M505.173333 910.36703l-234.682181 90.608485A62.060606 62.060606 0 0 1 186.181818 939.690667l13.653334-251.159273a62.060606 62.060606 0 0 0-13.839516-42.511515l-158.657939-195.180606a62.060606 62.060606 0 0 1 32.178424-99.141818L302.638545 287.030303a62.060606 62.060606 0 0 0 36.150303-26.251636l136.626425-211.223273a62.060606 62.060606 0 0 1 104.199757 0l136.626425 211.223273a62.060606 62.060606 0 0 0 36.150303 26.251636l243.122424 64.667152a62.060606 62.060606 0 0 1 32.178424 99.110787l-158.657939 195.180606a62.060606 62.060606 0 0 0-13.808485 42.511516l13.653333 251.190303a62.060606 62.060606 0 0 1-84.340363 61.284848l-234.682182-90.608485a62.060606 62.060606 0 0 0-44.683637 0z" fill="#d81e06" p-id="16303"></path></svg>